ffmpeg started on 2026-01-14 at 14:26:33
Report written to "D:\Convert\FFMetrics\reports\psnr_report-6.txt"
Log level: 32
Command line:
ffmpeg -hide_banner -nostdin -r 24000/1001 -i "F:\\Convert\\files\\[DC] Make Heroine ga Oosugiru - 07_Telegram_HEVC(137).mkv" -r 24000/1001 -i "F:\\Convert\\files\\[DC] Make Heroine ga Oosugiru - 07_Telegram.mp4" -lavfi "[0:v]settb=AVTB,setpts=PTS-STARTPTS,format=pix_fmts=yuv420p10le,fps=24000/1001,scale=1920:1080:flags=lanczos:param0=3:out_range=limited:out_color_matrix=bt709:out_chroma_loc=left,setsar=1/1,setdar=(1920/1080)*(1/1),colorspace=format=yuv420p10:range=tv:primaries=bt709:trc=bt709:space=bt709:fast=0[main];[1:v]settb=AVTB,setpts=PTS-STARTPTS,format=pix_fmts=yuv420p,fps=24000/1001,scale=1920:1080:flags=lanczos:param0=3:out_range=limited:out_color_matrix=bt709:out_chroma_loc=left,setsar=1.000,setdar=1.778,colorspace=format=yuv420p:range=tv:primaries=bt709:trc=bt709:space=bt709:fast=0[ref];[main][ref]psnr=eof_action=endall:stats_file='D\\:/Convert/FFMetrics/logs/psnr_logfile-6.txt'" -f null -
Input #0, matroska,webm, from 'F:\Convert\files\[DC] Make Heroine ga Oosugiru - 07_Telegram_HEVC(137).mkv':
  Metadata:
    COMPATIBLE_BRANDS: isomiso2avc1mp41
    MAJOR_BRAND     : isom
    MINOR_VERSION   : 512
    ENCODER         : Lavf61.7.100
  Duration: 00:24:06.79, start: -0.021000, bitrate: 981 kb/s
  Stream #0:0: Video: hevc (Main 10), yuv420p10le(tv, bt709, progressive), 1920x1080 [SAR 1:1 DAR 16:9], 23.98 fps, 23.98 tbr, 1k tbn (default)
      Metadata:
        HANDLER_NAME    : VideoHandler
        VENDOR_ID       : [0][0][0][0]
        ENCODER         : Lavc61.19.100 libx265
        BPS             : 784046
        DURATION        : 00:24:06.569708333
        NUMBER_OF_FRAMES: 34683
        NUMBER_OF_BYTES : 141772153
        _STATISTICS_WRITING_APP: mkvpropedit v94.0 ('Initiate') 64-bit
        _STATISTICS_WRITING_DATE_UTC: 2026-01-14 10:39:46
        _STATISTICS_TAGS: BPS DURATION NUMBER_OF_FRAMES NUMBER_OF_BYTES
  Stream #0:1: Audio: aac (LC), 48000 Hz, stereo, fltp (default)
      Metadata:
        HANDLER_NAME    : SoundHandler
        VENDOR_ID       : [0][0][0][0]
        ENCODER         : Lavc61.19.100 aac
        BPS             : 193194
        DURATION        : 00:24:06.784000000
        NUMBER_OF_FRAMES: 67819
        NUMBER_OF_BYTES : 34938755
        _STATISTICS_WRITING_APP: mkvpropedit v94.0 ('Initiate') 64-bit
        _STATISTICS_WRITING_DATE_UTC: 2026-01-14 10:39:46
        _STATISTICS_TAGS: BPS DURATION NUMBER_OF_FRAMES NUMBER_OF_BYTES
Input #1, mov,mp4,m4a,3gp,3g2,mj2, from 'F:\Convert\files\[DC] Make Heroine ga Oosugiru - 07_Telegram.mp4':
  Metadata:
    major_brand     : isom
    minor_version   : 512
    compatible_brands: isomiso2avc1mp41
    encoder         : Lavf60.16.100
  Duration: 00:24:06.74, start: 0.000000, bitrate: 3764 kb/s
  Stream #1:0[0x1](und): Video: h264 (High) (avc1 / 0x31637661), yuv420p(tv, bt709, progressive), 1920x1080 [SAR 1:1 DAR 16:9], 3616 kb/s, 23.98 fps, 23.98 tbr, 24k tbn (default)
      Metadata:
        handler_name    : VideoHandler
        vendor_id       : [0][0][0][0]
        encoder         : Lavc60.31.102 h264_qsv
  Stream #1:1[0x2](und): Audio: aac (HE-AACv2) (mp4a / 0x6134706D), 48000 Hz, stereo, fltp, 144 kb/s (default)
      Metadata:
        handler_name    : SoundHandler
        vendor_id       : [0][0][0][0]
Stream mapping:
  Stream #0:0 (hevc) -> settb:default
  Stream #1:0 (h264) -> settb:default
  psnr:default -> Stream #0:0 (wrapped_avframe)
  Stream #0:1 -> #0:1 (aac (native) -> pcm_s16le (native))
Output #0, null, to 'pipe:':
  Metadata:
    COMPATIBLE_BRANDS: isomiso2avc1mp41
    MAJOR_BRAND     : isom
    MINOR_VERSION   : 512
    encoder         : Lavf61.7.100
  Stream #0:0: Video: wrapped_avframe, yuv420p10le(tv, bt709, progressive), 1920x1080 [SAR 1:1 DAR 16:9], q=2-31, 200 kb/s, 23.98 fps, 23.98 tbn
      Metadata:
        encoder         : Lavc61.19.100 wrapped_avframe
  Stream #0:1: Audio: pcm_s16le, 48000 Hz, stereo, s16, 1536 kb/s (default)
      Metadata:
        HANDLER_NAME    : SoundHandler
        VENDOR_ID       : [0][0][0][0]
        _STATISTICS_TAGS: BPS DURATION NUMBER_OF_FRAMES NUMBER_OF_BYTES
        BPS             : 193194
        DURATION        : 00:24:06.784000000
        NUMBER_OF_FRAMES: 67819
        NUMBER_OF_BYTES : 34938755
        _STATISTICS_WRITING_APP: mkvpropedit v94.0 ('Initiate') 64-bit
        _STATISTICS_WRITING_DATE_UTC: 2026-01-14 10:39:46
        encoder         : Lavc61.19.100 pcm_s16le
frame=  137 fps=0.0 q=-0.0 size=N/A time=00:00:05.71 bitrate=N/A speed=11.1x    frame=  325 fps=313 q=-0.0 size=N/A time=00:00:13.55 bitrate=N/A speed=13.1x    frame=  520 fps=336 q=-0.0 size=N/A time=00:00:21.68 bitrate=N/A speed=  14x    frame=  706 fps=342 q=-0.0 size=N/A time=00:00:29.44 bitrate=N/A speed=14.3x    frame=  890 fps=346 q=-0.0 size=N/A time=00:00:37.12 bitrate=N/A speed=14.4x    frame= 1032 fps=333 q=-0.0 size=N/A time=00:00:43.04 bitrate=N/A speed=13.9x    frame= 1192 fps=328 q=-0.0 size=N/A time=00:00:49.71 bitrate=N/A speed=13.7x    frame= 1352 fps=327 q=-0.0 size=N/A time=00:00:56.38 bitrate=N/A speed=13.6x    frame= 1509 fps=324 q=-0.0 size=N/A time=00:01:02.93 bitrate=N/A speed=13.5x    frame= 1647 fps=318 q=-0.0 size=N/A time=00:01:08.69 bitrate=N/A speed=13.3x    frame= 1815 fps=319 q=-0.0 size=N/A time=00:01:15.70 bitrate=N/A speed=13.3x    frame= 1973 fps=318 q=-0.0 size=N/A time=00:01:22.29 bitrate=N/A speed=13.3x    frame= 2083 fps=310 q=-0.0 size=N/A time=00:01:26.87 bitrate=N/A speed=12.9x    frame= 2223 fps=307 q=-0.0 size=N/A time=00:01:32.71 bitrate=N/A speed=12.8x    frame= 2368 fps=305 q=-0.0 size=N/A time=00:01:38.76 bitrate=N/A speed=12.7x    frame= 2502 fps=303 q=-0.0 size=N/A time=00:01:44.35 bitrate=N/A speed=12.6x    frame= 2647 fps=302 q=-0.0 size=N/A time=00:01:50.40 bitrate=N/A speed=12.6x    frame= 2825 fps=304 q=-0.0 size=N/A time=00:01:57.82 bitrate=N/A speed=12.7x    frame= 3002 fps=306 q=-0.0 size=N/A time=00:02:05.20 bitrate=N/A speed=12.8x    frame= 3201 fps=310 q=-0.0 size=N/A time=00:02:13.50 bitrate=N/A speed=12.9x    frame= 3402 fps=314 q=-0.0 size=N/A time=00:02:21.89 bitrate=N/A speed=13.1x    frame= 3598 fps=317 q=-0.0 size=N/A time=00:02:30.06 bitrate=N/A speed=13.2x    frame= 3799 fps=320 q=-0.0 size=N/A time=00:02:38.44 bitrate=N/A speed=13.3x    frame= 3998 fps=322 q=-0.0 size=N/A time=00:02:46.74 bitrate=N/A speed=13.5x    frame= 4189 fps=325 q=-0.0 size=N/A time=00:02:54.71 bitrate=N/A speed=13.5x    frame= 4386 fps=327 q=-0.0 size=N/A time=00:03:02.93 bitrate=N/A speed=13.6x    frame= 4586 fps=329 q=-0.0 size=N/A time=00:03:11.27 bitrate=N/A speed=13.7x    frame= 4775 fps=330 q=-0.0 size=N/A time=00:03:19.15 bitrate=N/A speed=13.8x    frame= 4968 fps=332 q=-0.0 size=N/A time=00:03:27.20 bitrate=N/A speed=13.8x    frame= 5170 fps=334 q=-0.0 size=N/A time=00:03:35.63 bitrate=N/A speed=13.9x    frame= 5358 fps=335 q=-0.0 size=N/A time=00:03:43.47 bitrate=N/A speed=  14x    frame= 5552 fps=336 q=-0.0 size=N/A time=00:03:51.56 bitrate=N/A speed=  14x    frame= 5749 fps=337 q=-0.0 size=N/A time=00:03:59.78 bitrate=N/A speed=14.1x    frame= 5942 fps=339 q=-0.0 size=N/A time=00:04:07.83 bitrate=N/A speed=14.1x    frame= 6137 fps=340 q=-0.0 size=N/A time=00:04:15.96 bitrate=N/A speed=14.2x    frame= 6331 fps=341 q=-0.0 size=N/A time=00:04:24.05 bitrate=N/A speed=14.2x    frame= 6528 fps=342 q=-0.0 size=N/A time=00:04:32.27 bitrate=N/A speed=14.3x    frame= 6725 fps=343 q=-0.0 size=N/A time=00:04:40.48 bitrate=N/A speed=14.3x    frame= 6916 fps=344 q=-0.0 size=N/A time=00:04:48.45 bitrate=N/A speed=14.3x    frame= 7105 fps=344 q=-0.0 size=N/A time=00:04:56.33 bitrate=N/A speed=14.4x    frame= 7296 fps=345 q=-0.0 size=N/A time=00:05:04.30 bitrate=N/A speed=14.4x    frame= 7477 fps=345 q=-0.0 size=N/A time=00:05:11.85 bitrate=N/A speed=14.4x    frame= 7664 fps=345 q=-0.0 size=N/A time=00:05:19.65 bitrate=N/A speed=14.4x    frame= 7849 fps=346 q=-0.0 size=N/A time=00:05:27.36 bitrate=N/A speed=14.4x    frame= 8039 fps=346 q=-0.0 size=N/A time=00:05:35.29 bitrate=N/A speed=14.4x    frame= 8229 fps=347 q=-0.0 size=N/A time=00:05:43.21 bitrate=N/A speed=14.5x    frame= 8430 fps=348 q=-0.0 size=N/A time=00:05:51.60 bitrate=N/A speed=14.5x    frame= 8616 fps=348 q=-0.0 size=N/A time=00:05:59.35 bitrate=N/A speed=14.5x    frame= 8806 fps=348 q=-0.0 size=N/A time=00:06:07.28 bitrate=N/A speed=14.5x    frame= 9007 fps=349 q=-0.0 size=N/A time=00:06:15.66 bitrate=N/A speed=14.6x    frame= 9195 fps=349 q=-0.0 size=N/A time=00:06:23.50 bitrate=N/A speed=14.6x    frame= 9388 fps=350 q=-0.0 size=N/A time=00:06:31.55 bitrate=N/A speed=14.6x    frame= 9581 fps=350 q=-0.0 size=N/A time=00:06:39.60 bitrate=N/A speed=14.6x    frame= 9777 fps=351 q=-0.0 size=N/A time=00:06:47.78 bitrate=N/A speed=14.6x    frame= 9971 fps=351 q=-0.0 size=N/A time=00:06:55.87 bitrate=N/A speed=14.7x    frame=10159 fps=352 q=-0.0 size=N/A time=00:07:03.71 bitrate=N/A speed=14.7x    frame=10355 fps=352 q=-0.0 size=N/A time=00:07:11.88 bitrate=N/A speed=14.7x    frame=10547 fps=352 q=-0.0 size=N/A time=00:07:19.89 bitrate=N/A speed=14.7x    frame=10738 fps=353 q=-0.0 size=N/A time=00:07:27.86 bitrate=N/A speed=14.7x    frame=10915 fps=353 q=-0.0 size=N/A time=00:07:35.24 bitrate=N/A speed=14.7x    frame=11118 fps=353 q=-0.0 size=N/A time=00:07:43.71 bitrate=N/A speed=14.7x    frame=11297 fps=353 q=-0.0 size=N/A time=00:07:51.17 bitrate=N/A speed=14.7x    frame=11483 fps=353 q=-0.0 size=N/A time=00:07:58.93 bitrate=N/A speed=14.7x    frame=11671 fps=354 q=-0.0 size=N/A time=00:08:06.77 bitrate=N/A speed=14.7x    frame=11872 fps=354 q=-0.0 size=N/A time=00:08:15.16 bitrate=N/A speed=14.8x    frame=12069 fps=354 q=-0.0 size=N/A time=00:08:23.37 bitrate=N/A speed=14.8x    frame=12264 fps=355 q=-0.0 size=N/A time=00:08:31.51 bitrate=N/A speed=14.8x    frame=12458 fps=355 q=-0.0 size=N/A time=00:08:39.60 bitrate=N/A speed=14.8x    frame=12653 fps=355 q=-0.0 size=N/A time=00:08:47.73 bitrate=N/A speed=14.8x    frame=12848 fps=356 q=-0.0 size=N/A time=00:08:55.86 bitrate=N/A speed=14.8x    frame=13039 fps=356 q=-0.0 size=N/A time=00:09:03.83 bitrate=N/A speed=14.8x    frame=13237 fps=356 q=-0.0 size=N/A time=00:09:12.09 bitrate=N/A speed=14.9x    frame=13420 fps=356 q=-0.0 size=N/A time=00:09:19.72 bitrate=N/A speed=14.9x    frame=13609 fps=357 q=-0.0 size=N/A time=00:09:27.60 bitrate=N/A speed=14.9x    frame=13808 fps=357 q=-0.0 size=N/A time=00:09:35.90 bitrate=N/A speed=14.9x    frame=14000 fps=357 q=-0.0 size=N/A time=00:09:43.91 bitrate=N/A speed=14.9x    frame=14163 fps=357 q=-0.0 size=N/A time=00:09:50.71 bitrate=N/A speed=14.9x    frame=14363 fps=357 q=-0.0 size=N/A time=00:09:59.05 bitrate=N/A speed=14.9x    frame=14554 fps=357 q=-0.0 size=N/A time=00:10:07.02 bitrate=N/A speed=14.9x    frame=14738 fps=357 q=-0.0 size=N/A time=00:10:14.69 bitrate=N/A speed=14.9x    frame=14918 fps=357 q=-0.0 size=N/A time=00:10:22.20 bitrate=N/A speed=14.9x    frame=15104 fps=357 q=-0.0 size=N/A time=00:10:29.96 bitrate=N/A speed=14.9x    frame=15281 fps=357 q=-0.0 size=N/A time=00:10:37.34 bitrate=N/A speed=14.9x    frame=15469 fps=357 q=-0.0 size=N/A time=00:10:45.18 bitrate=N/A speed=14.9x    frame=15663 fps=357 q=-0.0 size=N/A time=00:10:53.27 bitrate=N/A speed=14.9x    frame=15858 fps=357 q=-0.0 size=N/A time=00:11:01.41 bitrate=N/A speed=14.9x    frame=16044 fps=357 q=-0.0 size=N/A time=00:11:09.16 bitrate=N/A speed=14.9x    frame=16242 fps=358 q=-0.0 size=N/A time=00:11:17.42 bitrate=N/A speed=14.9x    frame=16430 fps=358 q=-0.0 size=N/A time=00:11:25.26 bitrate=N/A speed=14.9x    frame=16631 fps=358 q=-0.0 size=N/A time=00:11:33.65 bitrate=N/A speed=14.9x    frame=16828 fps=358 q=-0.0 size=N/A time=00:11:41.86 bitrate=N/A speed=14.9x    frame=17022 fps=359 q=-0.0 size=N/A time=00:11:49.95 bitrate=N/A speed=  15x    frame=17220 fps=359 q=-0.0 size=N/A time=00:11:58.21 bitrate=N/A speed=  15x    frame=17419 fps=359 q=-0.0 size=N/A time=00:12:06.51 bitrate=N/A speed=  15x    frame=17606 fps=359 q=-0.0 size=N/A time=00:12:14.31 bitrate=N/A speed=  15x    frame=17796 fps=359 q=-0.0 size=N/A time=00:12:22.24 bitrate=N/A speed=  15x    frame=17979 fps=359 q=-0.0 size=N/A time=00:12:29.87 bitrate=N/A speed=  15x    frame=18172 fps=359 q=-0.0 size=N/A time=00:12:37.92 bitrate=N/A speed=  15x    frame=18356 fps=359 q=-0.0 size=N/A time=00:12:45.59 bitrate=N/A speed=  15x    frame=18551 fps=360 q=-0.0 size=N/A time=00:12:53.73 bitrate=N/A speed=  15x    frame=18747 fps=360 q=-0.0 size=N/A time=00:13:01.90 bitrate=N/A speed=  15x    frame=18929 fps=360 q=-0.0 size=N/A time=00:13:09.49 bitrate=N/A speed=  15x    frame=19138 fps=360 q=-0.0 size=N/A time=00:13:18.21 bitrate=N/A speed=  15x    frame=19339 fps=360 q=-0.0 size=N/A time=00:13:26.59 bitrate=N/A speed=  15x    frame=19530 fps=361 q=-0.0 size=N/A time=00:13:34.56 bitrate=N/A speed=  15x    frame=19735 fps=361 q=-0.0 size=N/A time=00:13:43.11 bitrate=N/A speed=  15x    frame=19930 fps=361 q=-0.0 size=N/A time=00:13:51.24 bitrate=N/A speed=15.1x    frame=20126 fps=361 q=-0.0 size=N/A time=00:13:59.42 bitrate=N/A speed=15.1x    frame=20321 fps=361 q=-0.0 size=N/A time=00:14:07.55 bitrate=N/A speed=15.1x    frame=20510 fps=361 q=-0.0 size=N/A time=00:14:15.43 bitrate=N/A speed=15.1x    frame=20683 fps=361 q=-0.0 size=N/A time=00:14:22.65 bitrate=N/A speed=15.1x    frame=20875 fps=361 q=-0.0 size=N/A time=00:14:30.66 bitrate=N/A speed=15.1x    frame=21084 fps=362 q=-0.0 size=N/A time=00:14:39.37 bitrate=N/A speed=15.1x    frame=21277 fps=362 q=-0.0 size=N/A time=00:14:47.42 bitrate=N/A speed=15.1x    frame=21472 fps=362 q=-0.0 size=N/A time=00:14:55.56 bitrate=N/A speed=15.1x    frame=21662 fps=362 q=-0.0 size=N/A time=00:15:03.48 bitrate=N/A speed=15.1x    frame=21859 fps=362 q=-0.0 size=N/A time=00:15:11.70 bitrate=N/A speed=15.1x    frame=22047 fps=362 q=-0.0 size=N/A time=00:15:19.54 bitrate=N/A speed=15.1x    frame=22245 fps=362 q=-0.0 size=N/A time=00:15:27.80 bitrate=N/A speed=15.1x    frame=22446 fps=363 q=-0.0 size=N/A time=00:15:36.18 bitrate=N/A speed=15.1x    frame=22644 fps=363 q=-0.0 size=N/A time=00:15:44.44 bitrate=N/A speed=15.1x    frame=22825 fps=363 q=-0.0 size=N/A time=00:15:51.99 bitrate=N/A speed=15.1x    frame=23016 fps=363 q=-0.0 size=N/A time=00:15:59.95 bitrate=N/A speed=15.1x    frame=23209 fps=363 q=-0.0 size=N/A time=00:16:08.00 bitrate=N/A speed=15.1x    frame=23406 fps=363 q=-0.0 size=N/A time=00:16:16.22 bitrate=N/A speed=15.1x    frame=23600 fps=363 q=-0.0 size=N/A time=00:16:24.31 bitrate=N/A speed=15.1x    frame=23801 fps=363 q=-0.0 size=N/A time=00:16:32.70 bitrate=N/A speed=15.2x    frame=23996 fps=363 q=-0.0 size=N/A time=00:16:40.83 bitrate=N/A speed=15.2x    frame=24185 fps=363 q=-0.0 size=N/A time=00:16:48.71 bitrate=N/A speed=15.2x    frame=24349 fps=363 q=-0.0 size=N/A time=00:16:55.55 bitrate=N/A speed=15.1x    frame=24550 fps=363 q=-0.0 size=N/A time=00:17:03.93 bitrate=N/A speed=15.2x    frame=24741 fps=363 q=-0.0 size=N/A time=00:17:11.90 bitrate=N/A speed=15.2x    frame=24938 fps=363 q=-0.0 size=N/A time=00:17:20.12 bitrate=N/A speed=15.2x    frame=25123 fps=363 q=-0.0 size=N/A time=00:17:27.83 bitrate=N/A speed=15.2x    frame=25319 fps=364 q=-0.0 size=N/A time=00:17:36.01 bitrate=N/A speed=15.2x    frame=25512 fps=364 q=-0.0 size=N/A time=00:17:44.06 bitrate=N/A speed=15.2x    frame=25697 fps=364 q=-0.0 size=N/A time=00:17:51.77 bitrate=N/A speed=15.2x    frame=25903 fps=364 q=-0.0 size=N/A time=00:18:00.37 bitrate=N/A speed=15.2x    frame=26090 fps=364 q=-0.0 size=N/A time=00:18:08.17 bitrate=N/A speed=15.2x    frame=26292 fps=364 q=-0.0 size=N/A time=00:18:16.59 bitrate=N/A speed=15.2x    frame=26483 fps=364 q=-0.0 size=N/A time=00:18:24.56 bitrate=N/A speed=15.2x    frame=26678 fps=364 q=-0.0 size=N/A time=00:18:32.69 bitrate=N/A speed=15.2x    frame=26868 fps=364 q=-0.0 size=N/A time=00:18:40.61 bitrate=N/A speed=15.2x    frame=27045 fps=364 q=-0.0 size=N/A time=00:18:48.00 bitrate=N/A speed=15.2x    frame=27231 fps=364 q=-0.0 size=N/A time=00:18:55.75 bitrate=N/A speed=15.2x    frame=27413 fps=364 q=-0.0 size=N/A time=00:19:03.35 bitrate=N/A speed=15.2x    frame=27602 fps=364 q=-0.0 size=N/A time=00:19:11.23 bitrate=N/A speed=15.2x    frame=27795 fps=364 q=-0.0 size=N/A time=00:19:19.28 bitrate=N/A speed=15.2x    frame=27980 fps=364 q=-0.0 size=N/A time=00:19:26.99 bitrate=N/A speed=15.2x    frame=28165 fps=364 q=-0.0 size=N/A time=00:19:34.71 bitrate=N/A speed=15.2x    frame=28366 fps=364 q=-0.0 size=N/A time=00:19:43.09 bitrate=N/A speed=15.2x    frame=28556 fps=364 q=-0.0 size=N/A time=00:19:51.02 bitrate=N/A speed=15.2x    frame=28735 fps=364 q=-0.0 size=N/A time=00:19:58.48 bitrate=N/A speed=15.2x    frame=28910 fps=364 q=-0.0 size=N/A time=00:20:05.78 bitrate=N/A speed=15.2x    frame=29078 fps=364 q=-0.0 size=N/A time=00:20:12.79 bitrate=N/A speed=15.2x    frame=29250 fps=363 q=-0.0 size=N/A time=00:20:19.96 bitrate=N/A speed=15.2x    frame=29420 fps=363 q=-0.0 size=N/A time=00:20:27.05 bitrate=N/A speed=15.2x    frame=29595 fps=363 q=-0.0 size=N/A time=00:20:34.35 bitrate=N/A speed=15.1x    frame=29766 fps=363 q=-0.0 size=N/A time=00:20:41.49 bitrate=N/A speed=15.1x    frame=29938 fps=363 q=-0.0 size=N/A time=00:20:48.66 bitrate=N/A speed=15.1x    frame=30105 fps=362 q=-0.0 size=N/A time=00:20:55.62 bitrate=N/A speed=15.1x    frame=30290 fps=362 q=-0.0 size=N/A time=00:21:03.34 bitrate=N/A speed=15.1x    frame=30482 fps=363 q=-0.0 size=N/A time=00:21:11.35 bitrate=N/A speed=15.1x    frame=30675 fps=363 q=-0.0 size=N/A time=00:21:19.40 bitrate=N/A speed=15.1x    frame=30873 fps=363 q=-0.0 size=N/A time=00:21:27.66 bitrate=N/A speed=15.1x    frame=31067 fps=363 q=-0.0 size=N/A time=00:21:35.75 bitrate=N/A speed=15.1x    frame=31261 fps=363 q=-0.0 size=N/A time=00:21:43.84 bitrate=N/A speed=15.1x    frame=31445 fps=363 q=-0.0 size=N/A time=00:21:51.51 bitrate=N/A speed=15.1x    frame=31637 fps=363 q=-0.0 size=N/A time=00:21:59.52 bitrate=N/A speed=15.1x    frame=31825 fps=363 q=-0.0 size=N/A time=00:22:07.36 bitrate=N/A speed=15.1x    frame=32004 fps=363 q=-0.0 size=N/A time=00:22:14.83 bitrate=N/A speed=15.1x    frame=32188 fps=363 q=-0.0 size=N/A time=00:22:22.50 bitrate=N/A speed=15.1x    frame=32388 fps=363 q=-0.0 size=N/A time=00:22:30.84 bitrate=N/A speed=15.1x    frame=32576 fps=363 q=-0.0 size=N/A time=00:22:38.69 bitrate=N/A speed=15.1x    frame=32727 fps=363 q=-0.0 size=N/A time=00:22:44.98 bitrate=N/A speed=15.1x    frame=32889 fps=362 q=-0.0 size=N/A time=00:22:51.74 bitrate=N/A speed=15.1x    frame=33071 fps=362 q=-0.0 size=N/A time=00:22:59.33 bitrate=N/A speed=15.1x    frame=33250 fps=362 q=-0.0 size=N/A time=00:23:06.80 bitrate=N/A speed=15.1x    frame=33421 fps=362 q=-0.0 size=N/A time=00:23:13.93 bitrate=N/A speed=15.1x    frame=33570 fps=362 q=-0.0 size=N/A time=00:23:20.14 bitrate=N/A speed=15.1x    frame=33719 fps=361 q=-0.0 size=N/A time=00:23:26.36 bitrate=N/A speed=15.1x    frame=33843 fps=361 q=-0.0 size=N/A time=00:23:31.53 bitrate=N/A speed=  15x    frame=33986 fps=360 q=-0.0 size=N/A time=00:23:37.49 bitrate=N/A speed=  15x    frame=34152 fps=360 q=-0.0 size=N/A time=00:23:44.42 bitrate=N/A speed=  15x    frame=34307 fps=360 q=-0.0 size=N/A time=00:23:50.88 bitrate=N/A speed=  15x    frame=34434 fps=359 q=-0.0 size=N/A time=00:23:56.18 bitrate=N/A speed=  15x    frame=34604 fps=359 q=-0.0 size=N/A time=00:24:03.27 bitrate=N/A speed=  15x    [Parsed_psnr_16 @ 000001a5609cc840] PSNR y:48.950320 u:50.328575 v:50.378782 average:49.369640 min:38.003480 max:inf
[out#0/null @ 000001a558e58a00] video:14903KiB audio:271276KiB subtitle:0KiB other streams:0KiB global headers:0KiB muxing overhead: unknown
frame=34683 fps=359 q=-0.0 Lsize=N/A time=00:24:06.57 bitrate=N/A speed=  15x    
